<svg id="logo" xmlns="http://www.w3.org/2000/svg" viewBox="0 0 695.99 689.53"><defs><style>.cls-1{fill:none;}.cls-1,.cls-3{stroke:#170200;stroke-width:2px;}.cls-1,.cls-3,.cls-4,.cls-6{stroke-miterlimit:10;}.cls-2{fill:#170200;}.cls-3,.cls-6{fill:#fff;}.cls-4{stroke:#000;stroke-width:3px;}.cls-5{font-size:94px;font-family:PTSans-Bold, PT Sans;font-weight:700;}.cls-6{stroke:#fff;}</style></defs><title>girasol</title><path class="cls-1" d="M1511.61,701.29c8.13,8.58,16.63,16.09,26,20.91,3.29,3.8,8.47,8,15.36,12.62,6.26,2.11,11.76,4.48,15.33,7.53,2.23,2,6,3.58,10.22,5" transform="translate(-1047.79 -151.24)"/><path class="cls-1" d="M1522.11,690.61a95.88,95.88,0,0,1,25.6,18.8,71,71,0,0,1,17.95,17.69l11.55,10.1" transform="translate(-1047.79 -151.24)"/><path class="cls-1" d="M1504,710.3c13.67,10.85,27.44,20.19,41.34,27.12,3.68,3.4,10.22,6.74,17.89,10.06,4.84,1.22,9.52,1.74,15.27-.11a27,27,0,0,0-5.22-17.78c-5.49-9.35-10.93-18.51-15.44-22.8a161.43,161.43,0,0,0-18-25.33,24.87,24.87,0,0,0-12.79-7.87" transform="translate(-1047.79 -151.24)"/><path class="cls-1" d="M1222.85,492.75a180,180,0,0,1-30.55.22" transform="translate(-1047.79 -151.24)"/><path class="cls-1" d="M1469.76,495.62a58.24,58.24,0,0,0,20.4-4.76" transform="translate(-1047.79 -151.24)"/><path class="cls-1" d="M1468.64,507.64c14.07,2.5,31.13,3.35,49.67,3.39,16.73-1.82,33.68-3.69,50.88-5.45,16.82-4.07,30.57-9.19,40.63-15.56" transform="translate(-1047.79 -151.24)"/><path class="cls-1" d="M1576.3,522.08a71.23,71.23,0,0,0,28.58-9.11c9.16-6.14,15.1-13.79,17.66-23" transform="translate(-1047.79 -151.24)"/><path class="cls-1" d="M1463.86,526.69c18.33,4.37,34.23,10.35,44.52,20.05,14.6,7.69,29.84,13,45.93,15,11.93,2.7,26.74,4.13,43.31,4.79,14.91.21,29.24.88,43.3,2.24" transform="translate(-1047.79 -151.24)"/><path class="cls-1" d="M1640.92,568.72c-10-6.05-20.78-11-33.43-12.85-21.5-2.87-40.4-8.79-56.55-17.92-26.18-9.35-54.64-13.93-84.74-15.1" transform="translate(-1047.79 -151.24)"/><path class="cls-1" d="M1579.69,596.5c35.18-.21,55.41-9.58,61.23-27.78,4.66-1.8,6.26-7.11,7.55-12.78.87-9.55-2.22-16.54-10.33-20.29-6.94-1.39-13.79-1.86-20.37.14l-12.71,2.64c-4.35.86-8.58-.3-12.75-2.46-4.8-6.4-15.31-14.89-28.15-20.17-16.46-1.56-38-.89-61.1.43-15-.73-28.45-.49-36.88,2.93" transform="translate(-1047.79 -151.24)"/><path class="cls-1" d="M1579.69,596.5" transform="translate(-1047.79 -151.24)"/><path class="cls-1" d="M1432.69,573.06c19.84,14.8,44,22.17,71,24.64,12.83-1.67,29.54,12.23,46,25.13a158.38,158.38,0,0,0,35.86,30.3,80.33,80.33,0,0,0,25.57,15.1l12.39,6.21" transform="translate(-1047.79 -151.24)"/><path class="cls-1" d="M1441.86,565c29.86,0,59,4.05,87.12,14.72,24.53,10.25,43.48,26.06,58.88,45.41,11,9.91,21.55,23.05,31.86,37.48" transform="translate(-1047.79 -151.24)"/><path class="cls-1" d="M1427.13,577.87c25.3,22.36,57.87,43.13,94.64,63,33.61,17.85,67.58,30.37,102.08,34.92-6.45-22-14.17-42-25.85-55.83-10.22-14.69-21.59-28.6-35.93-40.48-19.8-12.69-36.79-20.16-51.08-22.55a141.54,141.54,0,0,0-58.43-5.48" transform="translate(-1047.79 -151.24)"/><path class="cls-1" d="M1411.93,588.16c30,9.25,56.79,22.25,79.21,40.18,17.92,8.16,28.38,24.09,35.95,43-.56,8.3-2.16,16.26-7.48,23a77.73,77.73,0,0,0-13.79,13.45,38.42,38.42,0,0,0-6.4,12.15" transform="translate(-1047.79 -151.24)"/><path class="cls-2" d="M1507,707.15c-.38-6.06-.73-12.08-1.6-18a83.42,83.42,0,0,0-1.72-8.79,52.11,52.11,0,0,0-2.9-8.39l0-.06,0,0c-.65-2-1.28-4-2-5.93s-1.4-3.92-2.18-5.85-1.58-3.85-2.45-5.75-1.81-3.77-2.81-5.61a48.61,48.61,0,0,1,3.55,5.22c1.09,1.81,2.06,3.69,3,5.58s1.77,3.84,2.54,5.8,1.53,3.93,2.19,5.93l0-.11a54,54,0,0,1,4.56,17.79A94.38,94.38,0,0,1,1507,707.15Z" transform="translate(-1047.79 -151.24)"/><path class="cls-2" d="M1519.51,681.6a5.24,5.24,0,0,1,1.67,2.79,10.22,10.22,0,0,1,.28,3.19,13.33,13.33,0,0,1-.56,3.08,10.91,10.91,0,0,1-1.31,2.87,16.39,16.39,0,0,1-.24-3.11c0-1,.06-2,.11-3s.13-1.92.16-2.88A18.3,18.3,0,0,0,1519.51,681.6Z" transform="translate(-1047.79 -151.24)"/><path class="cls-1" d="M1432.42,605.84c20.63,6.8,37,16.93,46.06,32.77a153,153,0,0,1,18,30.42,111.63,111.63,0,0,1,2.83,40.71,303.63,303.63,0,0,0-25.67-30.37c-11.67-13.09-21.79-25.3-28.26-35.44-15.33-18.14-27.17-36.66-33.49-55.77" transform="translate(-1047.79 -151.24)"/><path class="cls-1" d="M1404.61,589.57c5.12,17,12.94,34.31,23,51.94,7.23,13.79,17.63,27.28,30.84,40.52,14.07,9.32,26.92,22.69,39.05,38.44" transform="translate(-1047.79 -151.24)"/><path class="cls-1" d="M1361.14,606.34" transform="translate(-1047.79 -151.24)"/><path class="cls-1" d="M1341.38,693q.15.86.39,1.91c4.15,18.07,27.8,78.43,18.29,120.16,13.23-8.42,22.66-23.15,30.26-40.95,26.74-30.28,27.59-61.05,27.36-91.85-9.76-34.65-17-74.57-38.78-83.74a81.23,81.23,0,0,0-2.37,25.48c-2.34-9.88-6.12-17.88-12.25-22.83-14.88,10.14-20.85,29-23.19,51.08-1.54,11.23-1.16,25.23.29,40.73" transform="translate(-1047.79 -151.24)"/><path class="cls-1" d="M1361.14,606.34" transform="translate(-1047.79 -151.24)"/><path class="cls-1" d="M1469.8,491c.29,17.74-4.32,34.66-12.37,51-5.73,13.51-15.31,24.39-27.77,33.29-10.12,8.27-20.26,14-30.44,15.49a73.59,73.59,0,0,1-38.12,10.45c-13.89-.46-25.91-2.24-33.15-7.4-12.86-5.59-21-13.34-25.62-22.73q-15.95-9.41-20.53-22.77c-6.79-4.44-8.85-14.59-10.36-25.39-3.57-6.08-6.62-12.09-7.85-17.86q-.2-.91-.33-1.82a20.73,20.73,0,0,1,.34-8.27l0-5.09" transform="translate(-1047.79 -151.24)"/><path class="cls-2" d="M1378.92,601.12c3,6,5.85,12.12,8.55,18.29s5.12,12.46,7.42,18.8c1.14,3.17,2.25,6.36,3.28,9.56s2,6.45,2.9,9.69q2.74,9.74,4.8,19.66v.12a135.47,135.47,0,0,1,.1,19.3,145.92,145.92,0,0,1-2.5,19.14l0-.4a41.33,41.33,0,0,1,.92,13.79,103,103,0,0,1-2.11,13.52c-1,4.45-2.15,8.84-3.42,13.19s-2.62,8.69-4,13c1.16-4.38,2.34-8.76,3.42-13.16s2.08-8.82,2.94-13.25a101.69,101.69,0,0,0,1.75-13.39,42.93,42.93,0,0,0-1.11-13.22l-.05-.2,0-.2a144.11,144.11,0,0,0,2.31-18.92,158.26,158.26,0,0,0-.16-19.05l0,.12q-1.94-9.86-4.6-19.57-1.33-4.85-2.81-9.66c-1-3.21-2-6.41-3-9.59-2.11-6.37-4.45-12.67-6.89-18.93S1381.58,607.3,1378.92,601.12Z" transform="translate(-1047.79 -151.24)"/><path class="cls-2" d="M1376.55,626.6a78,78,0,0,1,8.72,16.71,147.57,147.57,0,0,1,5.48,18.09c.74,3.07,1.41,6.13,2,9.25.34,1.55.47,3.13.67,4.7s.35,3.14.49,4.71q.86,9.42,1.06,18.87c.16,12.59-.22,25.17-1.07,37.71q-.65,9.41-1.51,18.79c-.63,6.25-1.27,12.5-2,18.73.32-6.27.77-12.54,1.06-18.81s.71-12.53,1-18.8.5-12.53.62-18.8.12-12.53,0-18.79-.36-12.51-.87-18.75c-.12-1.56-.26-3.12-.44-4.66s-.29-3.1-.61-4.62c-.55-3.06-1.14-6.15-1.77-9.2a149.17,149.17,0,0,0-4.9-18.09A84.22,84.22,0,0,0,1376.55,626.6Z" transform="translate(-1047.79 -151.24)"/><path class="cls-2" d="M1361.17,611.43c-.06-.06-.2-.15-.22,0a1.14,1.14,0,0,0,0,.3c0,.2.07.39.12.58.1.39.21.77.33,1.15.24.76.49,1.52.75,2.28l1.59,4.52,3.24,9q3.27,9,6.24,18.15c2,6.09,3.87,12.21,5.4,18.46a79.72,79.72,0,0,1,1.76,9.5q.76,4.72,1.47,9.47c1.82,12.67,3.35,25.41,4,38.22a329,329,0,0,1,.06,38.44v.13a176.47,176.47,0,0,1-8.22,25.7,161,161,0,0,1-12.36,23.92q3.29-5.87,6.18-11.94t5.24-12.35a175.18,175.18,0,0,0,7.62-25.68l0,.13a353.42,353.42,0,0,0-.4-38.24q-1.25-19.09-3.88-38.08c-.44-3.16-.91-6.32-1.4-9.49a86.1,86.1,0,0,0-1.64-9.36c-1.39-6.2-3.15-12.35-5-18.46s-3.82-12.19-5.76-18.28l-2.93-9.14c-.48-1.52-1-3-1.41-4.59-.22-.77-.44-1.54-.64-2.31-.1-.39-.19-.78-.28-1.17,0-.2-.07-.39-.09-.59a1.15,1.15,0,0,1,0-.3C1361,611.27,1361.11,611.37,1361.17,611.43Z" transform="translate(-1047.79 -151.24)"/><path class="cls-2" d="M1351.45,619.4c1.33,8,2.78,16,4.42,24s3.26,15.94,4.93,23.91,3.23,16,4.57,24a177.73,177.73,0,0,1,2.61,24.4l0-.16c1.79,10.12,2.91,20.32,3.68,30.54s1.07,20.45,1.42,30.67v.06a43.66,43.66,0,0,1-3.27,13.62,49.06,49.06,0,0,1-7.28,11.88,52.45,52.45,0,0,0,6.71-12.11A45.41,45.41,0,0,0,1372,776.8v.06c-.56-10.21-1.21-20.41-2.05-30.59s-2-20.31-3.89-30.33v-.16a192.26,192.26,0,0,0-2.46-24.15c-1.25-8-2.83-16-4.31-24s-3-16-4.38-24S1352.31,627.5,1351.45,619.4Z" transform="translate(-1047.79 -151.24)"/><path class="cls-1" d="M1349.29,731.17a108.63,108.63,0,0,1-7.24,56.06,24.78,24.78,0,0,1-15.17,15.38c-11.14-4.78-17.55-11.71-20.51-20.22-5.62-4.28-9-10.22-10.31-17.75l-2.73-25.44c-7.53,16.5-16.49,29.9-27.73,38.38.32-12.34,1.85-23.95,7.4-33.15,9.17-15.51,20.49-28.81,35.37-38.44,14.44-7.65,24.49-21,31.72-38.09" transform="translate(-1047.79 -151.24)"/><path class="cls-1" d="M1342.84,699.1" transform="translate(-1047.79 -151.24)"/><path class="cls-2" d="M1316.12,721.22c-1.68,4.84-3.41,9.63-4.9,14.49a107.33,107.33,0,0,0-3.55,14.73c-.2,1.24-.37,2.49-.5,3.72s-.18,2.54-.28,3.81c-.22,2.54-.4,5.09-.65,7.63-.47,5.08-1,10.16-1.74,15.23-.09-5.12,0-10.23.19-15.34.07-2.56.21-5.11.32-7.66.07-1.28.13-2.54.23-3.83s.28-2.59.47-3.87a79,79,0,0,1,4-14.91A109.39,109.39,0,0,1,1316.12,721.22Z" transform="translate(-1047.79 -151.24)"/><path class="cls-1" d="M1340.24,688.91l-24.14,29.77c-12,7.38-20.5,15.35-22.35,24.43" transform="translate(-1047.79 -151.24)"/><path class="cls-1" d="M1315.19,588.84c-9.37,16.45-10.95,37-9.53,59-1,13.1-4.37,25.36-12.18,36L1276.24,707c-8,8.4-10.15,19.1-9.73,30.83-7.12,9.94-5.17,25.19-2.2,41" transform="translate(-1047.79 -151.24)"/><path class="cls-2" d="M1333.08,598.9c-.24,2.59-.42,5.12-.49,7.65s-.07,5.06,0,7.59.22,5.06.35,7.61.3,5.1.33,7.7a47.65,47.65,0,0,1-1.88-7.52,56.34,56.34,0,0,1-.79-7.73,45.53,45.53,0,0,1,.42-7.79A29.3,29.3,0,0,1,1333.08,598.9Z" transform="translate(-1047.79 -151.24)"/><path class="cls-2" d="M1325.23,592.59c-.16,2.29-.37,4.51-.5,6.73s-.2,4.43-.15,6.64.15,4.42.33,6.63.45,4.44.68,6.72a27.75,27.75,0,0,1-2.22-6.49,34.18,34.18,0,0,1-.18-13.7A27.79,27.79,0,0,1,1325.23,592.59Z" transform="translate(-1047.79 -151.24)"/><path class="cls-2" d="M1325.66,629.5c-.29,2.57-.6,5.13-.93,7.69l-1,7.68c-.68,5.12-1.41,10.23-2.14,15.34v.07a49.87,49.87,0,0,1-3,9,54.16,54.16,0,0,1-4.64,8.28,62.82,62.82,0,0,1-5.93,7.38,77.3,77.3,0,0,1-6.84,6.5l.06-.06a47.39,47.39,0,0,0-8.12,11.55,66.5,66.5,0,0,0-2.86,6.55c-.83,2.24-1.55,4.53-2.22,6.84a64.88,64.88,0,0,1,1.6-7,52.46,52.46,0,0,1,2.43-6.84,44.07,44.07,0,0,1,7.88-12.26l0,0,0,0a91.58,91.58,0,0,0,6.56-6.48,67.34,67.34,0,0,0,5.71-7.19,52.44,52.44,0,0,0,7.64-16.56V660c.89-5.08,1.79-10.17,2.74-15.25l1.45-7.61Q1324.87,633.3,1325.66,629.5Z" transform="translate(-1047.79 -151.24)"/><path class="cls-2" d="M1341.42,698.13a228.46,228.46,0,0,0-11.49,23.11,171.43,171.43,0,0,0-8.29,24.33,161.25,161.25,0,0,0-4.43,25.3,184.92,184.92,0,0,0-.55,25.79,130.3,130.3,0,0,1-1-25.91,135.46,135.46,0,0,1,4.05-25.68,142.73,142.73,0,0,1,8.8-24.46A150.88,150.88,0,0,1,1341.42,698.13Z" transform="translate(-1047.79 -151.24)"/><path class="cls-1" d="M1129.63,630.88" transform="translate(-1047.79 -151.24)"/><path class="cls-1" d="M1167.76,602.61c-14.22.89-31.94,6.11-50.75,12.68" transform="translate(-1047.79 -151.24)"/><path class="cls-1" d="M1192.86,571.88" transform="translate(-1047.79 -151.24)"/><path class="cls-1" d="M1131.69,630.23c-11.57,5.53-22.61,10.44-30,11-9.29,2-17.83,2.18-25.46.18l2.53-2.56,15.2-10.29q13.55-3.91,25.35-15.45,15.11-7.32,33-20.6" transform="translate(-1047.79 -151.24)"/><path class="cls-1" d="M1194.56,571.87c-12.64,3.85-42.93,20.92-46.81,24" transform="translate(-1047.79 -151.24)"/><path class="cls-1" d="M1207.94,563.81c-20.54,1.73-41.76.12-63.54-4.31" transform="translate(-1047.79 -151.24)"/><path class="cls-1" d="M1271.48,528c-12.36,2.8-25,4.18-38.17,2.82-14.1.8-26.4,3.19-35.59,7.89-8.82,2.35-28.68,9.77-48.56,19.83" transform="translate(-1047.79 -151.24)"/><path class="cls-1" d="M1271.44,523c-16.79-.23-32.55-.53-45.82.32-11.63,1.56-29.69,9.32-45.71,17.25-18.88,9.35-34.92,19-34.23,19,1.27,0,56-11.86,85.19-13.33,14.78-1.25,28.87-5.78,42.42-12.84" transform="translate(-1047.79 -151.24)"/><path class="cls-1" d="M1263.66,502.64c-15.26,8.7-33.17,14.63-53.34,18.2-17.77,4.08-39.9,5.32-63.61,5.54-22.57,0-40.82-2.7-56.06-7.24-10.05-.47-25.48-2.37-25.48-2.37" transform="translate(-1047.79 -151.24)"/><path class="cls-1" d="M1248.29,490c-10.5,8.72-23.27,13.54-39.13,13.08l-1.51-.06" transform="translate(-1047.79 -151.24)"/><path class="cls-1" d="M1207.65,503a138.61,138.61,0,0,1-38.21-2.28c-11.19-1.89-21.64-4.22-30.6-7.42-13.07.5-24.93.39-34.25-1" transform="translate(-1047.79 -151.24)"/><path class="cls-1" d="M1110.66,493.54" transform="translate(-1047.79 -151.24)"/><path class="cls-1" d="M1108,492.75c-20,1.39-34.55,8.66-41.53,24.17" transform="translate(-1047.79 -151.24)"/><path class="cls-1" d="M1182,538.86c-4.38.69-15.58.86-25.6.78-7.58-.06-14.48-.26-17.25-.48-14-1.74-45.9-9.86-45.9-9.86a102.89,102.89,0,0,1-26.81-11.41c0,1.09,33.57-4.93,49.46-3.41,17.92-.7,38.22-5.4,59.84-12.31" transform="translate(-1047.79 -151.24)"/><path class="cls-1" d="M1196.1,570.4" transform="translate(-1047.79 -151.24)"/><path class="cls-1" d="M1196.1,570.4" transform="translate(-1047.79 -151.24)"/><path class="cls-1" d="M1192.86,571.88a72,72,0,0,0-33.13-4.86,91.42,91.42,0,0,0-30.51,5.31c-17.24,9.23-31.08,21-40.48,35.93" transform="translate(-1047.79 -151.24)"/><path class="cls-1" d="M1114.08,592.81" transform="translate(-1047.79 -151.24)"/><path class="cls-1" d="M1175.09,579.65c-8.1-3.31-17.31-4.41-27.86-2.8l-.93.15-1.77.32" transform="translate(-1047.79 -151.24)"/><path class="cls-1" d="M1089.43,607.7" transform="translate(-1047.79 -151.24)"/><path class="cls-1" d="M1109.1,608.12" transform="translate(-1047.79 -151.24)"/><path class="cls-1" d="M1090.78,606.62" transform="translate(-1047.79 -151.24)"/><path class="cls-1" d="M1109.1,608.12" transform="translate(-1047.79 -151.24)"/><path class="cls-1" d="M1162.42,587.37c-8.29-2-16.06-2.32-22.91.16-9.9,4-20.09,11.54-30.41,20.58-5.86,2.63-12.76,2.38-20.37.14a210.53,210.53,0,0,1,35.48-23.16,60.34,60.34,0,0,1,20.31-7.78" transform="translate(-1047.79 -151.24)"/><path class="cls-1" d="M1157,539c-14.28,5.34-27.33,10.94-33,18.05a90.35,90.35,0,0,0-22.71,28.17l-7.66,16" transform="translate(-1047.79 -151.24)"/><path class="cls-1" d="M1417.81,700.14c8.24,11.58,13.2,26.18,15.58,43.17a106.16,106.16,0,0,1-2.33,30.57c-2.77,12.15-9.09,24-17.57,35.77-9.91-12.24-18.23-24.26-20.62-35.5" transform="translate(-1047.79 -151.24)"/><path class="cls-1" d="M1410.65,740.32c3.37,6.17,5.42,13.67,5.06,23.48a195.78,195.78,0,0,1-4.8,40.77" transform="translate(-1047.79 -151.24)"/><path class="cls-1" d="M1399.46,762.38a164.49,164.49,0,0,1,1.51,30.13" transform="translate(-1047.79 -151.24)"/><path class="cls-1" d="M1499.4,717.38" transform="translate(-1047.79 -151.24)"/><path class="cls-1" d="M1393.24,594.1c10.44,11.42,16.14,27,19,45,5.15,15.46,14.5,33.71,25.84,53.28a236,236,0,0,0,33.35,35.41c5.77,3.12,20.37-.14,20.37-.14" transform="translate(-1047.79 -151.24)"/><path class="cls-1" d="M1199.19,747.51" transform="translate(-1047.79 -151.24)"/><path class="cls-1" d="M1272.75,708.8c-12,6.47-23.92,11.46-35.55,13-10.71,9.24-18.94,18.66-25.28,25.64-2.67.86-4.51.27-5.11-2.51-1.3-8.68.68-17.15,4.91-25.49,15.39-21.86,32-39.63,45.48-48.69,9.39-2.22,18.68-8.26,27.88-18,5.4-13.7,9.72-26.46,9.93-35.71,3.35-14.13,9.72-24.48,18.53-31.79" transform="translate(-1047.79 -151.24)"/><path class="cls-1" d="M1302.37,576.2c-7.2,5.72-10.87,15.65-12.1,28.49,1.61,11.66-1.41,24.8-7.11,38.78a42.21,42.21,0,0,1-17.06,23.36" transform="translate(-1047.79 -151.24)"/><path class="cls-2" d="M1290.06,606.2c-2.09,6.23-4.38,12.4-7,18.43a99,99,0,0,1-9.5,17.42c-.47.69-1,1.33-1.52,2s-1.09,1.26-1.61,1.9l-3,3.83c-2,2.56-4,5.17-6,7.77q-5.92,7.84-11.77,15.78,4.88-8.57,10.51-16.7c1.85-2.72,3.81-5.37,5.77-8,1-1.32,2-2.61,3-3.93.52-.64,1.06-1.24,1.56-1.87s1-1.26,1.45-1.93a83.09,83.09,0,0,0,5.16-8.23c1.61-2.83,3.08-5.75,4.54-8.67C1284.5,618.11,1287.25,612.15,1290.06,606.2Z" transform="translate(-1047.79 -151.24)"/><path class="cls-1" d="M1295.65,566.61a175.65,175.65,0,0,1-8.43,27.52c-3.55,12.14-8.82,21.05-15.08,28.11L1252,650.39,1234.33,676c-7.27,8.56-12.78,19.55-17.19,32.09l-.39,1.13c-7.35,5.34-17.14,12.68-27.86,20.56l-5,15.31c-2,1.64-2.74,5.81-5,10.22l10.15-5.16a51.86,51.86,0,0,0,17.68-20.49" transform="translate(-1047.79 -151.24)"/><path class="cls-2" d="M1189,745a4,4,0,0,1-.36.24.84.84,0,0,1-.22.09c0,.05-.31,0-.31-.19a2,2,0,0,1,.33-.9,16.67,16.67,0,0,1,.95-1.43q1-1.36,2.13-2.62c1.47-1.69,3.06-3.27,4.67-4.81s3.3-3,5-4.4a52,52,0,0,1,5.46-3.93,61.21,61.21,0,0,1-4.4,5.08c-1.53,1.62-3.12,3.17-4.73,4.71s-3.26,3-4.94,4.46l-2.51,2.18c-.42.36-.84.73-1.23,1.1a3,3,0,0,0-.47.54c-.12-.06,0,0,.18,0Z" transform="translate(-1047.79 -151.24)"/><path class="cls-1" d="M1255.57,618.54c-3,14.44-9.41,26.62-19.71,36.21-7,9.16-12.69,22.6-24.73,33.67l-12.32,23.27c-3.44,3.75-5.09,9.46-6.44,15.5" transform="translate(-1047.79 -151.24)"/><path class="cls-1" d="M1191.09,727.2" transform="translate(-1047.79 -151.24)"/><path class="cls-1" d="M1223.91,642.95a83.77,83.77,0,0,1-17.59,33.22c-4.24,6.8-5.48,18.13-3.73,29" transform="translate(-1047.79 -151.24)"/><path class="cls-1" d="M1287,561a140.69,140.69,0,0,1-22.59,46c-9.36,14.23-20,25.86-32.86,33.33-12.55,6.55-24.09,11.59-33,12.75-.86.11-2.52.23-2.52.23" transform="translate(-1047.79 -151.24)"/><path class="cls-1" d="M1196,655.88" transform="translate(-1047.79 -151.24)"/><path class="cls-1" d="M1198.5,653.1c-16.05,3.31-30.88,4.27-43.25.51-11.55-2.63-20.47-6.66-27.7-11.57" transform="translate(-1047.79 -151.24)"/><path class="cls-1" d="M1123.49,640.79" transform="translate(-1047.79 -151.24)"/><path class="cls-1" d="M1144.92,633.32" transform="translate(-1047.79 -151.24)"/><path class="cls-1" d="M1172.85,622.94" transform="translate(-1047.79 -151.24)"/><path class="cls-1" d="M1205.81,602.34" transform="translate(-1047.79 -151.24)"/><path class="cls-1" d="M1283.74,552.87a207.58,207.58,0,0,1-39.95,21.19c-14.85,12.34-29.36,23.26-43.06,30.85a110.78,110.78,0,0,1-30.42,18,96.87,96.87,0,0,1-23.57,7.52l-1.83.3" transform="translate(-1047.79 -151.24)"/><path class="cls-1" d="M1124.61,641.1c6.89-4.81,14-8.55,21.45-10.51" transform="translate(-1047.79 -151.24)"/><path class="cls-1" d="M1281.8,548.34" transform="translate(-1047.79 -151.24)"/><path class="cls-1" d="M1279.93,546.86c-11.73,8-23.75,14-36.2,17-12.94,5.87-29,17.82-45.61,30.87l-22.77,20.53a83.56,83.56,0,0,0-16.59,12.19" transform="translate(-1047.79 -151.24)"/><path class="cls-1" d="M1275.17,539.43c-10.18,6.08-20,11.18-29,14.25a178.81,178.81,0,0,1-40.66,10.47c-10.23,3.95-18.87,16.91-27.81,28.2A124.94,124.94,0,0,1,1155,612.88c-11.74,5.58-22.71,15.53-32.9,28.24,9.49,2.1,19.79,1.66,30.55-.22A368.77,368.77,0,0,0,1206,625.25c21.48-8,39.63-18.77,53.23-33.47a133.75,133.75,0,0,0,26.88-35" transform="translate(-1047.79 -151.24)"/><path class="cls-1" d="M1201.52,652.58c-6.27,10.75-7.87,31.31-7.87,31.31-.62,0-2.13,25.75-1,40.93" transform="translate(-1047.79 -151.24)"/><path class="cls-3" d="M1417.68,682.32" transform="translate(-1047.79 -151.24)"/><path d="M1466.43,492.09l-2.27,0-.47,4.12-16.46-2.53.2-1.78c-27.8-.47-55.56-1.55-83.41-1.16-16.86.24-33.72.58-50.58.54l-3.76,0,14.19,2.15c-6.72,6.93-9.58,8.72-14.21-2.15l-4.28-.07a24.67,24.67,0,0,1,2.94,5.34l-1.24,2.28-16.75-8.07-2.56-.09c3.71,3.12,7.22,6.7,11.68,8.18-10,1.53-17.53-2.26-23.92-8.58q-3.33-.09-6.66-.14l2.14,2.42c-2.42.19-5,.41-7.6.64a8.28,8.28,0,0,1,2,9.1,7.82,7.82,0,0,1,.06,5.07l6.18,2-6.52,5.42c2.16,1.13,4.33,2.23,6.48,3.39s4.41,2.43,5.41,3l-10.13,1.45a8.24,8.24,0,0,1,1.81,9.62c6.24.3,12,7.6,7.13,14.18a10.08,10.08,0,0,1-1.2,1.33l-4,11.43,16.55-1.62-.12,12.67a9.22,9.22,0,0,1,4.36,1.22l.67-3.3,17.37-2.25-12.78,11.8a10.17,10.17,0,0,1,2.28,1.93c1.91-2,4-4.07,6.27-6.55l.14,10.58,1.64,1.07,7.55-11.39,1.58.12-1.57,17.08,6.64-8.87.54,7,11.36-3.21c-1,2.86-1.19,5.22-2.44,6.44q-.78.75-1.52,1.52a9.09,9.09,0,0,1,1.72,3c.67-.54,1.4-1.13,2.19-1.81l.63,8.89c9.11-1.09,6.45-11.37,12.35-14.85,1.92,2.85,1.63,9.45,8.21,5.17q1.3,4.53,2.51,9a9.11,9.11,0,0,1,5.1,1.27c.1-1.83.22-3.66.21-5.45l2.61-.48,8.31,12.81c8.89,1.24,5.08-8.4,10.29-12.31l3.19,7.46q1.87-1.69,3.8-3.32l2.72-12a50.06,50.06,0,0,1,7.22,4.28q4.89-3.46,10-6.52c.27-1.3.59-2.64,1-4a11.66,11.66,0,0,1,2.15,2.2c1.64-.93,3.28-1.84,5-2.71L1408,576.33l1.44-2,11.31,8.46q1.45-.72,2.91-1.42l1-1c0-.91.05-1.8.13-2.61l1.58,1q3-2.83,6.12-5.47l-.58-1.64c.94-.09,1.86-.14,2.77-.16q2.86-2.32,5.81-4.48l-4.58-1.34.59-3.07c2.89.24,5.88.15,8.74.49q1.37-3.16,2.93-6.24c-1.31-.95-2.81-1.7-4.17-2.59l.9-2.31c1.66.54,3.45.88,5.13,1.38q2.24-4.06,4.81-8l2-4.21.82.1c.95-1.32,1.94-2.63,2.95-3.93l.12-.67-6.45-4.12,1-2.68c2.22.17,4.44.37,6.66.56a115,115,0,0,1,4.33-14.48l-3.42-2.22a24.58,24.58,0,0,1,4.72-1.1c.18-.43.37-.85.55-1.28q.21-3.09.6-6.15c-2.68-1.1-5.36-2.19-8-3.34l1.14-2.54c4.51-1.34,7.21-2.16,8.35-3.14.14-.68.3-1.35.45-2a10.22,10.22,0,0,0-1.82-2.46A7.15,7.15,0,0,1,1466.43,492.09Zm-27.21,4.17c6.06,1.37,12,3.16,19.34,5.11-6.42,5.52-6.42,5.52-31.55,4.55C1433.76,505.8,1431.46,494.5,1439.22,496.26Zm-36,19.41,9.46,7.08C1407,523.69,1402.16,523.54,1403.22,515.66Zm-14.72,33.48c-8.16-.25-6.76-8.07-10.06-11.74C1385.81,537.43,1388.8,541.38,1388.5,549.15Zm-10.17-11.74h0c.55,4.32,1,8.75,1.71,13.12a72.37,72.37,0,0,0,2.12,7.62l-3,1.19-7.71-19.56Zm-18.81-.21c.33-.76,6.62,0,6.64.34.22,4-.18,8.13-.53,13.95C1357.35,546.8,1357.4,542,1359.52,537.19Zm-20.45-19.94,1.2,3-13.39,5.41-1.25-3.11C1328.82,517.63,1333.62,516.65,1339.06,517.26Zm5.15,21.93-6.82,13.18C1333.28,543.22,1334.38,541,1344.21,539.19Zm-22-24.95-.07-3c4.33-.94,8.5-5.19,13.08-1l-.06,3.93Zm-1.9-14c7.95-3.43,12.5-2.29,15.39,5.37l-16-2.87Zm-51.75,1.06,6.41-2.58,5,4.17c1.42-.22,2.9-.34,4.33-.64,10.71-2.21,20-.55,26.24,9.42-6.66,5.42-20.05,1.69-30.64-8.83l1.65,8.15Zm33.4,18.62c-9.64,4.35-18.36,3.86-26-3.8,14.37-8.5,25.1,3.73,38,4.5-4.73,8.8-19.39,13.73-33.34,11.07l21.58-9.6Zm-19,28.93c5.86-15.3,20.54-14.24,33.37-19C1312.16,544.1,1299.3,551.07,1282.89,548.81Zm8,16.94c-.08-12.32,1.7-14.77,12.13-16.2Zm9-1.24c5.6-18.64,18.4-26.57,34.57-32.8-.87,8.41-4.35,11.34-11.81,8.5l-.46,2.55,7.22,2.22C1323.89,556.63,1311.72,558.38,1299.84,564.51Zm19.4,9.72c-1.11-6.95-1.66-13.72,7.19-20.12l-4.13,20.82Zm6.64,9.28,3-26.86,12.62-2.63C1345.9,562.66,1337.59,579.69,1325.88,583.51Zm11.81,12.38c-4-9.14-2-16.17,3.36-23.29l5,8.76Zm13-4.49-4.56-10.13c-.32-3.77-1.16-7.59-.7-11.27.52-4.15,2.29-8.16,3.36-11.72l-5.29-10.12,3-1.93,15.6,19.94C1361.3,573.6,1361.34,584.11,1350.67,591.4Zm10.28,7.05-4.09-1.12,6.45-22.31,3,.68Zm12.9,10.3c-4.16-8.07-11-13.2-5.93-22.55,4.76,2.89,1.46,12.6,11.45,10Zm2.72-17c-.11.37-.79.58-1.2.87-8.18-10.85-9-23.52-2.09-35.11,8,3.11,6.63,10.75,8.1,17l0,0C1379.81,580.23,1378.22,586,1376.56,591.76Zm10.26,6c-7.65-6.63-2.35-16.08-5.4-23.26C1390.78,581.9,1392.44,588.21,1386.82,597.81Zm9.47-9.56c-6.73-9.42-15.48-17.44-11.37-30.75C1397.54,563.63,1400.67,572,1396.29,588.25Zm8.93,1c-7-5.22-4.09-13.26-5.36-20.1l2.14-.5,5.59,19.95Zm13-12.67-24.63-18.43c4.93-1.87,11.31,1.42,10.34-7.29C1415.68,555.89,1421.35,565.5,1418.22,576.58Zm5.71-38,8.78,25.56-2.65,1.84c-5.46-4.53-11.59-8.47-16.2-13.74-5.77-6.59-4.37-9.93,3.95-12.49l-2.41-6.45c9.73-.58,22.21,11.66,25.93,26.09C1430.52,555.59,1431.83,542.28,1423.93,538.62Zm.41-12.61,1.48-1.91,22.64,13.34C1435.13,540,1428.74,536.38,1424.34,526Zm3.5-8.35c8.4-6.82,13.24-5.24,25.2,7.9C1443.4,529.39,1434.13,526.64,1427.84,517.65Zm15.35-7.13,17.4,3.95C1452.64,518.84,1447.18,519.07,1443.19,510.53Z" transform="translate(-1047.79 -151.24)"/><line class="cls-4" x1="4.71" y1="339.45" x2="621.21" y2="339.45"/><text class="cls-5" transform="matrix(0.51, -0.86, 0.86, 0.51, 72.81, 329.02)">H</text><text class="cls-5" transform="translate(135.68 243.79) rotate(-39.43)">I</text><text class="cls-5" transform="translate(195.04 202.31) rotate(-20.92)">L</text><text class="cls-5" transform="translate(284.62 176.79) rotate(-0.07)">L</text><text class="cls-5" transform="matrix(0.94, 0.33, -0.33, 0.94, 366.74, 181.79)">A</text><text class="cls-5" transform="translate(459.14 223.37) rotate(41.9)">R</text><text class="cls-5" transform="translate(525.24 292.68) rotate(63.2)">Y</text><path class="cls-6" d="M1344.15,529.45l6.44-7.9a8.62,8.62,0,0,1,.73,7.17c-.35,1.69-1.9,3-3.86,4.08l-3.31-3.35" transform="translate(-1047.79 -151.24)"/><path class="cls-6" d="M1347.45,510.37l8.56-5.54a8.62,8.62,0,0,1-1.51,7.05c-.85,1.5-2.72,2.22-4.93,2.69l-2.12-4.2" transform="translate(-1047.79 -151.24)"/><path class="cls-6" d="M1344.12,502.68l-6.53-7.83a8.62,8.62,0,0,1,7.18.65c1.59.67,2.54,2.43,3.26,4.57l-3.92,2.61" transform="translate(-1047.79 -151.24)"/><path class="cls-6" d="M1374,511.4l-6.53-7.83a8.62,8.62,0,0,1,7.18.65c1.59.67,2.54,2.43,3.26,4.57L1374,511.4" transform="translate(-1047.79 -151.24)"/><path class="cls-6" d="M1371.52,527.59l-6.53-7.83a8.62,8.62,0,0,1,7.18.65c1.59.67,2.54,2.43,3.26,4.57l-3.92,2.61" transform="translate(-1047.79 -151.24)"/><path class="cls-6" d="M1367.1,495.77c1.74-.3-7.37,2.65-11.13,2.8a11.51,11.51,0,0,1,4.35-5.44c3.21-.87,5.4.14,6.78,2.63" transform="translate(-1047.79 -151.24)"/><path class="cls-6" d="M1392,498.26c1.74-.3-7.37,2.65-11.13,2.8a11.51,11.51,0,0,1,4.35-5.44c3.21-.87,5.4.14,6.78,2.63" transform="translate(-1047.79 -151.24)"/><path class="cls-6" d="M1417.37,503.73c1,1.42-5.66-5.41-7.48-8.71a11.51,11.51,0,0,1,6.81,1.47c2.22,2.49,2.29,4.89.67,7.24" transform="translate(-1047.79 -151.24)"/><path class="cls-6" d="M1411.46,534.21c1.55.83-7.44-2.44-10.51-4.63a11.51,11.51,0,0,1,6.78-1.62c3.07,1.28,4.18,3.43,3.73,6.24" transform="translate(-1047.79 -151.24)"/><path class="cls-6" d="M1407.72,509.3c1.55.83-7.44-2.44-10.51-4.63a11.51,11.51,0,0,1,6.78-1.62c3.07,1.28,4.18,3.43,3.73,6.24" transform="translate(-1047.79 -151.24)"/><path class="cls-6" d="M1394.48,515.61c1.36-1.12-5.06,6-8.25,8a11.51,11.51,0,0,1,1.06-6.89c2.35-2.36,4.75-2.58,7.19-1.1" transform="translate(-1047.79 -151.24)"/><path class="cls-6" d="M1391.26,532.88c-1.25-1.25,6.42,4.49,8.72,7.47a11.51,11.51,0,0,1-7-.42c-2.57-2.12-3-4.49-1.76-7.06" transform="translate(-1047.79 -151.24)"/><path class="cls-1" d="M1497.05,719.93c3,4.27,5.26,8.25,4.95,11.07-7.34,4.8-17,1.25-27.36-2.22" transform="translate(-1047.79 -151.24)"/><path class="cls-1" d="M1430.28,703.86c11.72,6.18,22.34,13.8,31.16,23.8a65,65,0,0,1,13.72,30c2.28,6.17,3.69,13.51,4.76,21.3l-1,5.43-3.58-5a35.64,35.64,0,0,1-6.91-11.21,70.28,70.28,0,0,1-7.81-19.31c-3.79-8.47-7.48-17.38-12.86-19.38-10.08-6.55-18-14.44-22.76-24.35l-3.18.74c5.31,14,13.8,28.9,24.13,44.3,9.5,14,20.25,25.9,32.85,34.82,2-10,3.12-19.41,1.4-27.26a87.91,87.91,0,0,0-5.73-23.32c-5.15-9.08-10.27-15.52-15.39-19.42a62.8,62.8,0,0,0-21.81-14.23" transform="translate(-1047.79 -151.24)"/></svg>